<svg xmlns="http://www.w3.org/2000/svg" xml:space="preserve" fill-rule="evenodd" stroke-linejoin="round" stroke-miterlimit="2" clip-rule="evenodd" viewBox="0 0 600 600">
  <style>
    @media (prefers-color-scheme: light) { 
      #favicon-polygon { fill: #000 }
    }
    @media (prefers-color-scheme: dark) { 
      #favicon-polygon { fill: #fff }
    }
  </style>
  <path 
    id="favicon-polygon"
    d="M300 0c165.575 0 300 134.425 300 300S465.575 600 300 600 0 465.575 0 300 134.425 0 300 0Zm232.385 191.711-50.039-17.231-1.943 12.56c-2.738 17.701-16.001 50.233-32.124 79.425-35.312 63.626-82.022 104.959-151.416 135.049l-13.904 6.029 10.407 11.016c7.629 8.077 9.908 11.237 14.429 20.179l4.825 9.541 9.511-4.883c54.449-27.957 90.908-54.997 122.862-92.269 29.578-33.853 52.111-73.651 74.229-130.76 5.082-13.121 5.053-13.133 7.445-17.71l5.718-10.946Zm-385.75 210.212v45.583l13.168-3.246c27.624-6.809 49.042-20.356 64.411-40.393 15.308-19.959 23.114-44.326 23.114-73.198v-47.665c0-18.937-3.582-36.075-10.635-51.437-7.128-15.525-17.238-28.655-30.322-39.395-13.004-10.676-28.509-18.293-46.56-22.757l-13.176-3.259v44.505l8.201 1.922c9.486 2.224 17.724 6.463 24.691 12.763 7.154 6.469 12.678 14.52 16.636 24.109 4.094 9.92 6.081 21.11 6.081 33.549v47.665c0 12.128-1.96 23.163-5.976 33.086-3.85 9.513-9.286 17.428-16.382 23.694-6.993 6.175-15.344 10.341-25.015 12.573l-8.236 1.901ZM75.612 265.847c-13.775 0-25.102 11.326-25.102 25.101 0 13.775 11.327 25.102 25.102 25.102s25.101-11.327 25.101-25.102-11.326-25.101-25.101-25.101Z"/>
</svg>
